<svg width="20" height="20" viewBox="0 0 20 20" fill="none" xmlns="http://www.w3.org/2000/svg">
    <!-- <rect width="20" height="20" rx="2" fill="#1F2223" /> -->
    <path d="M18 2H2V18H18V2Z" fill="white" />
    <path fill-rule="evenodd" clip-rule="evenodd"
        d="M4.61633 17.7071V12.6946C4.32456 12.7556 4.03187 12.8107 3.73875 12.8599C3.30135 12.9333 2.84103 13.0023 2.39789 13.0353L2.35352 13.0387V17.7071H4.61633Z"
        fill="#1A1A1A" />
    <path fill-rule="evenodd" clip-rule="evenodd"
        d="M7.50794 17.7071V11.8762C7.28656 11.9568 7.06444 12.033 6.84207 12.105C6.3173 12.275 5.78361 12.4245 5.24512 12.5536V17.7071H7.50794Z"
        fill="#1A1A1A" />
    <path fill-rule="evenodd" clip-rule="evenodd"
        d="M10.3995 17.7072V10.5032C9.68037 10.9433 8.9172 11.3177 8.13672 11.6346V17.7072H10.3995Z" fill="#1A1A1A" />
    <path fill-rule="evenodd" clip-rule="evenodd"
        d="M13.2902 17.7071V7.99707C12.6482 8.80909 11.8772 9.50269 11.0273 10.0932V17.7071H13.2902Z" fill="#1A1A1A" />
    <path fill-rule="evenodd" clip-rule="evenodd"
        d="M2.35352 12.4434C2.35352 12.4434 10.1368 11.861 13.2905 6.97765C13.2905 6.92164 13.919 7.60486 13.919 7.60486L13.6888 4.23914L11.0514 6.28883L11.8707 6.32245C11.8707 6.32245 10.0975 10.8473 2.35352 12.4434Z"
        fill="#1A1A1A" />
    <path fill-rule="evenodd" clip-rule="evenodd"
        d="M2.35352 2.34631V11.8455C2.62168 11.7887 2.88218 11.7282 3.13507 11.6645V3.12628H14.1668L14.1986 3.10158L14.2003 3.12628H16.8906V16.8539H13.8766V17.6339H17.6722V2.34631H2.35352Z"
        fill="#1A1A1A" />
</svg>